<svg version="1.1" id="Layer_1" xmlns="http://www.w3.org/2000/svg" xmlns:xlink="http://www.w3.org/1999/xlink" x="0px" y="0px"
	 width="100%" viewBox="0 0 512 512" enable-background="new 0 0 512 512" xml:space="preserve">
<path fill="#010101" opacity="1.000000" stroke="none" 
	d="
M513.000000,178.000000 
	C513.000000,289.972778 513.000000,401.445557 513.000000,512.959167 
	C342.402222,512.959167 171.804413,512.959167 1.103307,512.959167 
	C1.103307,342.443909 1.103307,171.887756 1.103307,1.165792 
	C171.666534,1.165792 342.333252,1.165792 513.000000,1.165792 
	C513.000000,59.862217 513.000000,118.681107 513.000000,178.000000 
M23.765778,401.916351 
	C23.764906,424.572113 23.588045,447.229675 23.824907,469.882965 
	C23.983370,485.037964 35.574909,497.048370 50.223049,497.942719 
	C65.101913,498.851166 78.198158,488.180664 80.154854,473.027496 
	C80.917824,467.118896 80.676064,461.067261 80.706337,455.079834 
	C80.800179,436.519226 91.278152,426.003693 109.827484,426.002563 
	C184.792328,425.997986 259.757172,426.000610 334.722015,426.000580 
	C336.669525,426.000580 338.617035,426.000580 340.371094,426.000580 
	C341.561096,421.381409 340.265930,419.181702 336.140533,417.549774 
	C331.566650,415.740448 327.338684,412.876495 323.275360,410.022827 
	C320.768311,408.262085 319.060120,408.085388 316.266571,409.618591 
	C312.117767,411.895630 307.611816,414.253540 303.029755,414.863495 
	C292.084595,416.320465 285.399414,409.789154 280.262512,400.194763 
	C278.462891,397.011444 276.665588,393.826782 274.863251,390.645020 
	C267.683014,377.969452 270.602539,366.457611 283.313660,359.383820 
	C287.805176,356.884277 290.678131,354.578644 289.185944,348.827606 
	C288.415771,345.859253 288.388062,342.364227 289.154358,339.399048 
	C290.882233,332.713287 287.573395,329.888245 282.226654,326.935455 
	C270.906128,320.683624 267.939056,308.693054 274.234406,297.391388 
	C277.146545,292.163361 280.070496,286.932373 283.239563,281.859131 
	C288.602905,273.273224 298.744690,269.612518 307.996796,273.045715 
	C312.272125,274.632141 316.430450,278.659119 320.398376,278.359131 
	C324.476562,278.050812 327.966217,272.984283 332.234955,271.488495 
	C339.350250,268.995300 341.263794,264.832489 341.003601,257.483734 
	C340.588593,245.762787 349.749969,237.199982 361.527863,236.931824 
	C367.690308,236.791504 373.861359,236.788437 380.023621,236.932587 
	C391.916687,237.210754 400.583832,245.996490 400.920197,257.972870 
	C400.985657,260.304138 400.812439,262.648224 400.993896,264.967224 
	C401.072601,265.973358 401.498505,267.430756 402.231598,267.830353 
	C407.400757,270.648071 412.690918,273.243774 418.279755,276.081635 
	C418.279755,266.889008 418.266174,258.065765 418.284088,249.242569 
	C418.298401,242.203629 419.415619,240.573303 425.876709,238.122910 
	C425.876709,231.864914 425.876709,225.558929 425.876709,218.993149 
	C419.495758,217.789886 418.204865,213.375671 418.215240,207.545975 
	C418.320587,148.387146 418.287354,89.228027 418.270905,30.068998 
	C418.268097,19.955479 414.386749,16.003790 404.508423,16.003138 
	C282.190857,15.995052 159.873306,15.995238 37.555744,16.002750 
	C27.610952,16.003361 23.758444,19.906519 23.743107,30.009699 
	C23.715784,48.007336 23.741159,66.005043 23.731150,84.002724 
	C23.727022,91.423996 22.845873,92.741310 16.098864,95.584953 
	C16.098864,101.890221 16.098864,108.210327 16.098864,114.493492 
	C22.702213,116.881172 23.731777,118.434875 23.732082,126.064690 
	C23.735670,215.719788 23.732901,305.374908 23.745134,395.029999 
	C23.745407,397.020599 23.902445,399.011169 23.765778,401.916351 
M352.500000,497.998138 
	C388.821625,497.997162 425.143433,498.064392 461.464783,497.964203 
	C477.766235,497.919250 489.783447,485.978455 490.218323,469.690002 
	C490.351685,464.695099 490.281830,459.693726 490.251526,454.695648 
	C490.192932,445.028961 486.213196,441.019318 476.621765,441.008118 
	C458.294312,440.986694 439.966827,441.001862 421.639343,441.001862 
	C317.672607,441.001862 213.705856,440.999390 109.739105,441.005829 
	C99.693573,441.006470 95.791199,444.877716 95.729218,454.817810 
	C95.697014,459.982086 95.806259,465.151123 95.621277,470.309723 
	C95.255608,480.507416 91.563850,489.556671 84.864189,497.998108 
	C87.535400,497.998108 89.350578,497.998138 91.165764,497.998138 
	C133.985397,497.998169 176.805038,497.995392 219.624680,498.001038 
	C226.657242,498.001953 228.134262,499.090149 230.409515,505.896423 
	C236.691391,505.896423 243.007645,505.896423 249.298050,505.896423 
	C251.727737,499.073853 253.248199,498.001160 260.529083,498.000092 
	C290.852722,497.995575 321.176361,497.998138 352.500000,497.998138 
M359.675171,425.998108 
	C368.285065,425.998108 376.894958,425.998108 385.949951,425.998108 
	C385.949951,422.090881 386.043182,418.791565 385.927216,415.499634 
	C385.769318,411.015869 388.167694,408.805939 391.990662,406.817322 
	C399.905701,402.699982 407.631470,398.170746 415.157684,393.375458 
	C418.616913,391.171448 421.604462,390.227905 425.276001,392.428680 
	C429.131592,394.739807 433.051208,396.949005 436.998566,399.100464 
	C440.447418,400.980164 443.558319,400.418335 445.654999,397.027161 
	C448.718811,392.071655 451.715454,387.056885 454.399109,381.889984 
	C456.371185,378.093079 455.427246,374.831299 451.465851,372.633972 
	C447.680511,370.534302 443.996307,368.253204 440.235229,366.108704 
	C436.738922,364.115173 435.397125,361.087067 436.201324,357.263885 
	C438.113800,348.171539 438.196167,339.116974 436.242889,330.022736 
	C435.376709,325.990082 436.712921,322.858032 440.422607,320.781830 
	C444.200348,318.667480 447.894714,316.404755 451.654816,314.258118 
	C455.620697,311.993988 456.282379,308.685028 454.295074,304.919556 
	C451.731934,300.063049 448.948608,295.313995 446.071777,290.634430 
	C443.529816,286.499695 440.748688,285.864166 436.353302,288.245728 
	C432.840637,290.148987 429.358612,292.124420 425.975861,294.247681 
	C422.054810,296.708801 418.814270,296.019135 414.966370,293.523712 
	C407.484680,288.671692 399.679932,284.279327 391.787354,280.116760 
	C388.177063,278.212677 385.845825,276.067535 385.931458,271.792511 
	C386.018250,267.461029 385.996460,263.125397 385.923279,258.793243 
	C385.848999,254.394440 383.629425,251.957443 379.131226,251.919662 
	C373.631683,251.873459 368.131409,251.903137 362.631470,251.907974 
	C358.154572,251.911911 355.829010,254.106903 355.819763,258.637054 
	C355.810944,262.970337 355.861755,267.304657 355.783203,271.636627 
	C355.713715,275.467987 353.920288,277.995392 350.399536,279.872284 
	C342.233398,284.225616 334.135986,288.750793 326.311310,293.683136 
	C322.609833,296.016388 319.467804,296.634430 315.719452,294.305573 
	C312.185028,292.109711 308.561127,290.050751 304.913635,288.046082 
	C301.092804,285.946167 297.873169,286.553436 295.577881,290.487640 
	C292.808472,295.234589 290.042725,299.983673 287.269684,304.728516 
	C284.980194,308.645935 285.946259,311.781891 289.683044,314.074463 
	C293.372162,316.337769 297.168640,318.425415 300.905029,320.612305 
	C304.616455,322.784515 305.635681,325.769745 305.338867,330.222076 
	C304.756439,338.958405 304.654663,347.797150 305.323792,356.519135 
	C305.702728,361.458923 304.346924,364.518219 300.301971,366.812225 
	C296.680817,368.865936 293.016205,370.853760 289.490631,373.062073 
	C285.995911,375.251099 285.001587,378.314026 287.146942,382.042419 
	C289.970734,386.949860 292.830353,391.836945 295.712524,396.710358 
	C297.904510,400.416626 301.031281,401.010284 304.673492,399.077728 
	C307.908173,397.361450 311.054810,395.477448 314.221436,393.635101 
	C320.619659,389.912689 321.941193,390.359924 328.063782,394.725037 
	C333.712921,398.752594 339.673523,402.537201 345.953888,405.440338 
	C355.550018,409.876190 355.787720,409.621246 355.809021,420.109833 
	C355.811737,421.442871 355.483093,422.929718 355.970673,424.059265 
	C356.348907,424.935455 357.761200,425.365295 359.675171,425.998108 
M415.395020,426.002960 
	C416.352783,425.275635 418.087097,424.599121 418.138580,423.812500 
	C418.413574,419.609222 418.268250,415.378418 418.268250,410.698212 
	C413.517181,413.301331 409.679993,416.092133 405.390411,417.567963 
	C400.735046,419.169647 400.414551,421.890717 401.283936,426.003357 
	C405.796265,426.003357 410.104248,426.003357 415.395020,426.002960 
z"/>
<path fill="#F8F5F5" opacity="1.000000" stroke="none" 
	d="
M23.986355,401.001770 
	C23.902445,399.011169 23.745407,397.020599 23.745134,395.029999 
	C23.732901,305.374908 23.735670,215.719788 23.732082,126.064690 
	C23.731777,118.434875 22.702213,116.881172 16.098864,114.493492 
	C16.098864,108.210327 16.098864,101.890221 16.098864,95.584953 
	C22.845873,92.741310 23.727022,91.423996 23.731150,84.002724 
	C23.741159,66.005043 23.715784,48.007336 23.743107,30.009699 
	C23.758444,19.906519 27.610952,16.003361 37.555744,16.002750 
	C159.873306,15.995238 282.190857,15.995052 404.508423,16.003138 
	C414.386749,16.003790 418.268097,19.955479 418.270905,30.068998 
	C418.287354,89.228027 418.320587,148.387146 418.215240,207.545975 
	C418.204865,213.375671 419.495758,217.789886 425.876709,218.993149 
	C425.876709,225.558929 425.876709,231.864914 425.876709,238.122910 
	C419.415619,240.573303 418.298401,242.203629 418.284088,249.242569 
	C418.266174,258.065765 418.279755,266.889008 418.279755,276.081635 
	C412.690918,273.243774 407.400757,270.648071 402.231598,267.830353 
	C401.498505,267.430756 401.072601,265.973358 400.993896,264.967224 
	C400.812439,262.648224 400.985657,260.304138 400.920197,257.972870 
	C400.583832,245.996490 391.916687,237.210754 380.023621,236.932587 
	C373.861359,236.788437 367.690308,236.791504 361.527863,236.931824 
	C349.749969,237.199982 340.588593,245.762787 341.003601,257.483734 
	C341.263794,264.832489 339.350250,268.995300 332.234955,271.488495 
	C327.966217,272.984283 324.476562,278.050812 320.398376,278.359131 
	C316.430450,278.659119 312.272125,274.632141 307.996796,273.045715 
	C298.744690,269.612518 288.602905,273.273224 283.239563,281.859131 
	C280.070496,286.932373 277.146545,292.163361 274.234406,297.391388 
	C267.939056,308.693054 270.906128,320.683624 282.226654,326.935455 
	C287.573395,329.888245 290.882233,332.713287 289.154358,339.399048 
	C288.388062,342.364227 288.415771,345.859253 289.185944,348.827606 
	C290.678131,354.578644 287.805176,356.884277 283.313660,359.383820 
	C270.602539,366.457611 267.683014,377.969452 274.863251,390.645020 
	C276.665588,393.826782 278.462891,397.011444 279.887268,400.572083 
	C240.286301,400.967865 201.060532,400.981110 161.834793,401.017212 
	C159.347321,401.019501 156.860001,401.199371 154.190918,401.017578 
	C152.094818,396.935822 148.783981,396.137085 144.854340,396.144409 
	C114.117073,396.201782 83.379494,396.223511 52.642467,396.120026 
	C48.421249,396.105804 45.254906,397.409424 42.618858,401.026611 
	C36.092014,401.012207 30.039185,401.006989 23.986355,401.001770 
M187.481018,289.755493 
	C189.979828,289.755493 192.478683,289.764709 194.977448,289.753967 
	C213.131378,289.675934 225.258041,278.032227 225.434402,259.974854 
	C225.647507,238.153793 225.658768,216.327164 225.425812,194.506485 
	C225.235336,176.663712 213.199142,165.004059 195.310440,164.979767 
	C154.496201,164.924347 113.681786,164.920700 72.867561,164.982269 
	C54.897964,165.009384 42.982529,177.089691 42.944649,195.169144 
	C42.900669,216.159271 42.925217,237.149551 42.936203,258.139771 
	C42.946648,278.105377 54.583263,289.748230 74.538864,289.752899 
	C111.854805,289.761597 149.170746,289.755432 187.481018,289.755493 
M292.500000,131.037338 
	C217.844254,131.037338 143.188507,131.036957 68.532768,131.039764 
	C66.866882,131.039825 65.159729,130.847870 63.543205,131.140182 
	C59.441982,131.881866 56.925232,134.336517 57.006413,138.647232 
	C57.087090,142.931229 59.605904,145.350082 63.771057,145.939758 
	C65.407005,146.171371 67.098083,146.030609 68.764053,146.030655 
	C170.249252,146.033356 271.734436,146.033569 373.219635,146.029129 
	C375.051727,146.029037 376.934509,146.229752 378.705566,145.884766 
	C382.570129,145.131927 384.928162,142.732056 385.012512,138.666443 
	C385.097351,134.580292 382.765778,132.160416 378.967834,131.212967 
	C377.548370,130.858841 375.985626,131.043076 374.488190,131.042664 
	C347.492126,131.035339 320.496063,131.037338 292.500000,131.037338 
M262.092224,352.585144 
	C263.256805,352.542572 264.440186,352.618073 265.582581,352.436188 
	C269.763947,351.770447 272.149292,349.370605 272.226593,345.039124 
	C272.301208,340.859497 269.622345,338.117523 265.073547,337.642853 
	C263.752838,337.505035 262.411133,337.543121 261.079071,337.543030 
	C192.085434,337.539093 123.091797,337.537262 54.098164,337.553223 
	C52.272217,337.553619 49.929585,337.080719 48.731426,338.002686 
	C46.460365,339.750275 43.896641,342.089447 43.188877,344.660309 
	C42.218628,348.184631 44.574341,351.100647 48.255486,352.066589 
	C50.306126,352.604706 52.542301,352.565613 54.694935,352.566345 
	C123.521912,352.589264 192.348892,352.585175 262.092224,352.585144 
M130.500244,366.414581 
	C105.004608,366.414764 79.508957,366.403625 54.013367,366.437134 
	C52.028999,366.439728 49.444370,366.036682 48.193832,367.083069 
	C46.015137,368.906158 43.300728,371.734985 43.340408,374.099762 
	C43.379986,376.458252 46.348263,378.942078 48.405384,380.997894 
	C49.128792,381.720795 50.956924,381.444855 52.280670,381.445190 
	C118.269417,381.462372 184.258163,381.461578 250.246918,381.446838 
	C251.405823,381.446564 252.600922,381.398895 253.716873,381.122192 
	C257.215240,380.254822 259.111145,377.906647 259.248779,374.339172 
	C259.394409,370.565216 257.656281,367.834961 253.926575,366.918884 
	C251.861191,366.411560 249.634583,366.434723 247.480484,366.433289 
	C208.820419,366.407501 170.160355,366.414612 130.500244,366.414581 
M107.500435,308.648865 
	C90.836617,308.648865 74.172783,308.643250 57.508976,308.654663 
	C54.844521,308.656464 52.157749,308.532562 49.520901,308.824554 
	C45.502148,309.269470 43.202518,311.751495 43.005821,315.761993 
	C42.808590,319.783386 44.888794,322.434998 48.830078,323.306946 
	C50.590881,323.696503 52.465290,323.667297 54.288185,323.667755 
	C118.777283,323.684174 183.266388,323.681610 247.755493,323.680420 
	C249.088486,323.680389 250.430389,323.760834 251.752884,323.638611 
	C256.516876,323.198456 259.341919,320.284943 259.275269,315.977539 
	C259.208099,311.637146 256.399536,308.984009 251.475220,308.685150 
	C249.980606,308.594421 248.476715,308.649841 246.977066,308.649811 
	C200.818192,308.648621 154.659332,308.648895 107.500435,308.648865 
M195.380035,51.021229 
	C194.646606,50.633717 193.924942,50.221779 193.178009,49.862328 
	C179.858093,43.452267 164.491379,45.789173 153.854752,55.835835 
	C143.582138,65.538643 140.171661,80.790077 145.343506,93.897629 
	C150.644562,107.332703 163.929596,116.192017 178.486816,115.999748 
	C193.495911,115.801506 206.719482,105.764893 211.143311,91.213692 
	C215.780289,75.961296 210.083496,60.964649 195.380035,51.021229 
M133.255783,54.302910 
	C128.373428,48.617031 122.050194,46.215740 114.697884,46.182766 
	C110.868805,46.165592 107.039032,46.137218 103.210556,46.188217 
	C96.428162,46.278561 93.869278,48.799015 93.851639,55.562691 
	C93.807343,72.544052 93.810150,89.525604 93.832428,106.507034 
	C93.840324,112.529045 96.386383,115.828476 100.990524,115.984375 
	C105.820847,116.147942 108.735374,112.658386 108.818398,106.528748 
	C108.865875,103.024094 108.826996,99.518272 108.826996,94.851746 
	C114.531715,101.342339 119.230934,106.734566 123.982208,112.080521 
	C127.914001,116.504425 132.103180,117.225014 135.660095,114.177727 
	C139.191315,111.152435 139.135437,106.746300 135.367706,102.324097 
	C131.501511,97.786324 127.530815,93.337578 123.560913,88.798477 
	C138.933640,79.859024 142.465820,67.748268 133.255783,54.302910 
M374.499329,208.924210 
	C379.994965,208.923599 385.493439,209.033310 390.985352,208.889740 
	C395.945984,208.760040 399.100586,205.608841 399.013184,201.222641 
	C398.930237,197.062073 395.834106,194.187057 391.141205,193.942978 
	C390.144531,193.891144 389.143250,193.923035 388.144104,193.923019 
	C343.846222,193.922333 299.548309,193.921875 255.250427,193.924927 
	C253.918564,193.925018 252.572601,193.845871 251.257431,194.004471 
	C246.969009,194.521545 244.613129,197.173508 244.508347,201.313843 
	C244.408157,205.273880 246.757019,207.861145 250.617249,208.733734 
	C252.209167,209.093597 253.931137,208.917969 255.593979,208.918289 
	C294.895874,208.925842 334.197754,208.924194 374.499329,208.924210 
M357.329315,54.661858 
	C355.551453,53.208588 353.950439,51.428719 351.967133,50.354916 
	C338.872864,43.265430 322.529663,45.547832 311.708649,55.815399 
	C300.722931,66.239258 297.661896,82.625862 304.166229,96.192635 
	C314.059082,116.827202 342.002716,122.740189 357.008423,107.374290 
	C360.958344,103.329559 361.383514,98.735031 358.106232,95.510887 
	C354.780945,92.239510 351.279266,92.881416 346.611908,96.327774 
	C343.685425,98.488647 339.989532,100.378265 336.453369,100.787849 
	C328.208008,101.742882 320.305908,96.291664 317.182983,88.548965 
	C314.159515,81.052795 316.206909,72.022926 322.169769,66.555206 
	C328.595215,60.663319 337.209198,59.576622 345.293274,63.896538 
	C348.721497,65.728470 351.967346,67.048386 355.466553,64.320107 
	C358.534760,61.927921 358.818573,58.783028 357.329315,54.661858 
M293.965698,102.276230 
	C287.593628,101.634621 281.221527,100.993019 274.710632,100.337440 
	C274.710632,96.824577 274.710632,93.080284 274.710632,88.930008 
	C278.880798,88.930008 282.848724,88.981674 286.814789,88.917358 
	C292.179413,88.830376 295.632019,85.904388 295.703979,81.496582 
	C295.776703,77.039360 292.383392,74.027634 287.032166,73.931580 
	C282.939484,73.858124 278.844421,73.916977 274.853790,73.916977 
	C274.853790,69.527390 274.853790,65.798721 274.853790,61.822109 
	C279.850372,61.822109 284.497101,61.937370 289.135559,61.791073 
	C294.206970,61.631119 297.248932,58.656925 297.221710,54.205486 
	C297.194244,49.704826 294.232056,46.922169 289.026855,46.840973 
	C282.034454,46.731903 275.037903,46.732906 268.045319,46.835911 
	C262.197876,46.922047 259.542206,49.499279 259.506531,55.465645 
	C259.402954,72.783768 259.401215,90.103363 259.511810,107.421410 
	C259.549316,113.292107 262.353149,115.927460 268.143860,115.989189 
	C274.970673,116.061974 281.831696,116.392906 288.610352,115.817070 
	C291.344574,115.584793 294.719238,113.861656 296.333252,111.713264 
	C298.443176,108.904808 297.502625,105.343231 293.965698,102.276230 
M68.489838,91.403908 
	C80.406075,87.804649 87.307869,77.880554 85.916405,66.346230 
	C84.536209,54.905338 74.726677,46.482895 62.345791,46.200893 
	C57.857552,46.098667 53.363232,46.101994 48.874943,46.202553 
	C42.855511,46.337410 40.075603,49.121407 40.055962,55.175922 
	C39.999844,72.472725 40.007801,89.769920 40.053848,107.066788 
	C40.068363,112.520432 42.880398,115.844536 47.336910,115.987099 
	C51.972309,116.135376 54.971283,112.681099 55.028236,107.013901 
	C55.077599,102.102211 55.038502,97.189621 55.038502,92.374687 
	C59.747948,92.122803 63.719471,91.910385 68.489838,91.403908 
M294.500031,222.871826 
	C281.000580,222.871887 267.501129,222.851929 254.001724,222.880905 
	C247.790741,222.894241 244.297531,225.715363 244.420471,230.490311 
	C244.537918,235.052307 248.035065,237.862167 253.850800,237.867844 
	C281.182983,237.894516 308.515228,237.897324 335.847382,237.865891 
	C341.762665,237.859085 345.051514,235.118759 345.097168,230.401413 
	C345.143219,225.642456 341.913788,222.905380 335.998352,222.886856 
	C322.499023,222.844574 308.999512,222.872452 294.500031,222.871826 
M390.441162,115.201408 
	C391.908447,112.615280 394.161194,110.170235 394.657074,107.409622 
	C395.381775,103.375023 394.846588,99.113953 394.846771,94.949417 
	C394.847321,83.837624 394.846954,72.725822 394.846954,61.144920 
	C397.807495,61.144920 400.270355,61.255630 402.719696,61.120522 
	C407.038727,60.882275 409.545502,58.347069 409.848145,54.203003 
	C410.157623,49.965389 407.686584,46.657299 403.628418,46.490284 
	C392.824860,46.045654 381.981415,46.057400 371.175018,46.458797 
	C367.111328,46.609745 364.732513,49.692211 364.840942,54.057472 
	C364.944214,58.213619 367.719635,60.892323 372.274475,61.139046 
	C374.691772,61.269985 377.122009,61.162243 379.834564,61.162243 
	C379.834564,77.025826 379.785217,92.163940 379.857513,107.301476 
	C379.888824,113.853203 383.065826,116.408714 390.441162,115.201408 
M225.547699,115.234497 
	C236.482010,117.739571 247.299927,111.191933 247.810272,100.499008 
	C248.563965,84.707802 248.168854,68.856636 248.052811,53.032551 
	C248.022659,48.920967 245.103622,46.657021 241.262329,46.333248 
	C237.600311,46.024582 234.790512,47.902805 233.741608,51.580307 
	C233.251297,53.299343 233.203888,55.184666 233.197754,56.995434 
	C233.154449,69.824173 233.228409,82.653641 233.106750,95.481369 
	C233.090912,97.150772 232.641159,99.518280 231.525711,100.261223 
	C230.568298,100.898933 228.360153,99.712372 226.728561,99.249817 
	C226.275253,99.121307 225.932602,98.645653 225.492966,98.418938 
	C221.713135,96.469765 218.311234,97.029053 215.742020,100.414284 
	C213.130386,103.855370 213.523865,107.498611 216.715378,110.228058 
	C219.057968,112.231491 222.055008,113.469666 225.547699,115.234497 
z"/>
<path fill="#FAF7F7" opacity="1.000000" stroke="none" 
	d="
M352.000000,497.998138 
	C321.176361,497.998138 290.852722,497.995575 260.529083,498.000092 
	C253.248199,498.001160 251.727737,499.073853 249.298050,505.896423 
	C243.007645,505.896423 236.691391,505.896423 230.409515,505.896423 
	C228.134262,499.090149 226.657242,498.001953 219.624680,498.001038 
	C176.805038,497.995392 133.985397,497.998169 91.165764,497.998138 
	C89.350578,497.998138 87.535400,497.998108 84.864189,497.998108 
	C91.563850,489.556671 95.255608,480.507416 95.621277,470.309723 
	C95.806259,465.151123 95.697014,459.982086 95.729218,454.817810 
	C95.791199,444.877716 99.693573,441.006470 109.739105,441.005829 
	C213.705856,440.999390 317.672607,441.001862 421.639343,441.001862 
	C439.966827,441.001862 458.294312,440.986694 476.621765,441.008118 
	C486.213196,441.019318 490.192932,445.028961 490.251526,454.695648 
	C490.281830,459.693726 490.351685,464.695099 490.218323,469.690002 
	C489.783447,485.978455 477.766235,497.919250 461.464783,497.964203 
	C425.143433,498.064392 388.821625,497.997162 352.000000,497.998138 
z"/>
<path fill="#796C78" opacity="1.000000" stroke="none" 
	d="
M359.194519,425.995819 
	C357.761200,425.365295 356.348907,424.935455 355.970673,424.059265 
	C355.483093,422.929718 355.811737,421.442871 355.809021,420.109833 
	C355.787720,409.621246 355.550018,409.876190 345.953888,405.440338 
	C339.673523,402.537201 333.712921,398.752594 328.063782,394.725037 
	C321.941193,390.359924 320.619659,389.912689 314.221436,393.635101 
	C311.054810,395.477448 307.908173,397.361450 304.673492,399.077728 
	C301.031281,401.010284 297.904510,400.416626 295.712524,396.710358 
	C292.830353,391.836945 289.970734,386.949860 287.146942,382.042419 
	C285.001587,378.314026 285.995911,375.251099 289.490631,373.062073 
	C293.016205,370.853760 296.680817,368.865936 300.301971,366.812225 
	C304.346924,364.518219 305.702728,361.458923 305.323792,356.519135 
	C304.654663,347.797150 304.756439,338.958405 305.338867,330.222076 
	C305.635681,325.769745 304.616455,322.784515 300.905029,320.612305 
	C297.168640,318.425415 293.372162,316.337769 289.683044,314.074463 
	C285.946259,311.781891 284.980194,308.645935 287.269684,304.728516 
	C290.042725,299.983673 292.808472,295.234589 295.577881,290.487640 
	C297.873169,286.553436 301.092804,285.946167 304.913635,288.046082 
	C308.561127,290.050751 312.185028,292.109711 315.719452,294.305573 
	C319.467804,296.634430 322.609833,296.016388 326.311310,293.683136 
	C334.135986,288.750793 342.233398,284.225616 350.399536,279.872284 
	C353.920288,277.995392 355.713715,275.467987 355.783203,271.636627 
	C355.861755,267.304657 355.810944,262.970337 355.819763,258.637054 
	C355.829010,254.106903 358.154572,251.911911 362.631470,251.907974 
	C368.131409,251.903137 373.631683,251.873459 379.131226,251.919662 
	C383.629425,251.957443 385.848999,254.394440 385.923279,258.793243 
	C385.996460,263.125397 386.018250,267.461029 385.931458,271.792511 
	C385.845825,276.067535 388.177063,278.212677 391.787354,280.116760 
	C399.679932,284.279327 407.484680,288.671692 414.966370,293.523712 
	C418.814270,296.019135 422.054810,296.708801 425.975861,294.247681 
	C429.358612,292.124420 432.840637,290.148987 436.353302,288.245728 
	C440.748688,285.864166 443.529816,286.499695 446.071777,290.634430 
	C448.948608,295.313995 451.731934,300.063049 454.295074,304.919556 
	C456.282379,308.685028 455.620697,311.993988 451.654816,314.258118 
	C447.894714,316.404755 444.200348,318.667480 440.422607,320.781830 
	C436.712921,322.858032 435.376709,325.990082 436.242889,330.022736 
	C438.196167,339.116974 438.113800,348.171539 436.201324,357.263885 
	C435.397125,361.087067 436.738922,364.115173 440.235229,366.108704 
	C443.996307,368.253204 447.680511,370.534302 451.465851,372.633972 
	C455.427246,374.831299 456.371185,378.093079 454.399109,381.889984 
	C451.715454,387.056885 448.718811,392.071655 445.654999,397.027161 
	C443.558319,400.418335 440.447418,400.980164 436.998566,399.100464 
	C433.051208,396.949005 429.131592,394.739807 425.276001,392.428680 
	C421.604462,390.227905 418.616913,391.171448 415.157684,393.375458 
	C407.631470,398.170746 399.905701,402.699982 391.990662,406.817322 
	C388.167694,408.805939 385.769318,411.015869 385.927216,415.499634 
	C386.043182,418.791565 385.949951,422.090881 385.949951,425.998108 
	C376.894958,425.998108 368.285065,425.998108 359.194519,425.995819 
M384.339691,379.986755 
	C386.149963,379.150818 388.020538,378.423981 389.761200,377.462097 
	C406.705536,368.098358 414.179779,347.147400 407.000580,329.247742 
	C399.763611,311.204193 380.364319,301.038940 361.944946,305.638550 
	C340.095612,311.094666 327.291656,332.750763 333.283386,354.115448 
	C339.285156,375.515900 361.798737,387.197388 384.339691,379.986755 
z"/>
<path fill="#DDDAED" opacity="1.000000" stroke="none" 
	d="
M23.876066,401.459076 
	C30.039185,401.006989 36.092014,401.012207 42.612595,401.437042 
	C43.015957,408.688202 45.349644,411.163727 52.228786,411.172058 
	C83.288017,411.209656 114.347343,411.212677 145.406555,411.170898 
	C152.389999,411.161499 154.915146,408.269440 154.372620,401.296631 
	C156.860001,401.199371 159.347321,401.019501 161.834793,401.017212 
	C201.060532,400.981110 240.286301,400.967865 280.013794,400.916260 
	C285.399414,409.789154 292.084595,416.320465 303.029755,414.863495 
	C307.611816,414.253540 312.117767,411.895630 316.266571,409.618591 
	C319.060120,408.085388 320.768311,408.262085 323.275360,410.022827 
	C327.338684,412.876495 331.566650,415.740448 336.140533,417.549774 
	C340.265930,419.181702 341.561096,421.381409 340.371094,426.000580 
	C338.617035,426.000580 336.669525,426.000580 334.722015,426.000580 
	C259.757172,426.000610 184.792328,425.997986 109.827484,426.002563 
	C91.278152,426.003693 80.800179,436.519226 80.706337,455.079834 
	C80.676064,461.067261 80.917824,467.118896 80.154854,473.027496 
	C78.198158,488.180664 65.101913,498.851166 50.223049,497.942719 
	C35.574909,497.048370 23.983370,485.037964 23.824907,469.882965 
	C23.588045,447.229675 23.764906,424.572113 23.876066,401.459076 
z"/>
<path fill="#DBD8EB" opacity="1.000000" stroke="none" 
	d="
M414.903625,426.003174 
	C410.104248,426.003357 405.796265,426.003357 401.283936,426.003357 
	C400.414551,421.890717 400.735046,419.169647 405.390411,417.567963 
	C409.679993,416.092133 413.517181,413.301331 418.268250,410.698212 
	C418.268250,415.378418 418.413574,419.609222 418.138580,423.812500 
	C418.087097,424.599121 416.352783,425.275635 414.903625,426.003174 
z"/>
<path fill="#040403" opacity="1.000000" stroke="none" 
	d="
M186.983856,289.755493 
	C149.170746,289.755432 111.854805,289.761597 74.538864,289.752899 
	C54.583263,289.748230 42.946648,278.105377 42.936203,258.139771 
	C42.925217,237.149551 42.900669,216.159271 42.944649,195.169144 
	C42.982529,177.089691 54.897964,165.009384 72.867561,164.982269 
	C113.681786,164.920700 154.496201,164.924347 195.310440,164.979767 
	C213.199142,165.004059 225.235336,176.663712 225.425812,194.506485 
	C225.658768,216.327164 225.647507,238.153793 225.434402,259.974854 
	C225.258041,278.032227 213.131378,289.675934 194.977448,289.753967 
	C192.478683,289.764709 189.979828,289.755493 186.983856,289.755493 
M144.500000,179.966507 
	C120.855774,179.966736 97.211510,179.941422 73.567337,179.978958 
	C63.149540,179.995483 57.964188,185.212540 57.948723,195.649033 
	C57.917381,216.795578 57.915627,237.942215 57.948383,259.088745 
	C57.964439,269.451233 63.215015,274.723969 73.655739,274.733917 
	C113.950768,274.772278 154.245865,274.767578 194.540909,274.736969 
	C205.059708,274.728973 210.380173,269.615692 210.427475,259.247040 
	C210.524704,237.934387 210.522186,216.620682 210.423950,195.308029 
	C210.377151,185.153214 205.087158,180.006317 194.953003,179.979111 
	C178.468781,179.934845 161.984344,179.966751 144.500000,179.966507 
z"/>
<path fill="#010101" opacity="1.000000" stroke="none" 
	d="
M293.000000,131.037338 
	C320.496063,131.037338 347.492126,131.035339 374.488190,131.042664 
	C375.985626,131.043076 377.548370,130.858841 378.967834,131.212967 
	C382.765778,132.160416 385.097351,134.580292 385.012512,138.666443 
	C384.928162,142.732056 382.570129,145.131927 378.705566,145.884766 
	C376.934509,146.229752 375.051727,146.029037 373.219635,146.029129 
	C271.734436,146.033569 170.249252,146.033356 68.764053,146.030655 
	C67.098083,146.030609 65.407005,146.171371 63.771057,145.939758 
	C59.605904,145.350082 57.087090,142.931229 57.006413,138.647232 
	C56.925232,134.336517 59.441982,131.881866 63.543205,131.140182 
	C65.159729,130.847870 66.866882,131.039825 68.532768,131.039764 
	C143.188507,131.036957 217.844254,131.037338 293.000000,131.037338 
z"/>
<path fill="#080808" opacity="1.000000" stroke="none" 
	d="
M261.634033,352.585144 
	C192.348892,352.585175 123.521912,352.589264 54.694935,352.566345 
	C52.542301,352.565613 50.306126,352.604706 48.255486,352.066589 
	C44.574341,351.100647 42.218628,348.184631 43.188877,344.660309 
	C43.896641,342.089447 46.460365,339.750275 48.731426,338.002686 
	C49.929585,337.080719 52.272217,337.553619 54.098164,337.553223 
	C123.091797,337.537262 192.085434,337.539093 261.079071,337.543030 
	C262.411133,337.543121 263.752838,337.505035 265.073547,337.642853 
	C269.622345,338.117523 272.301208,340.859497 272.226593,345.039124 
	C272.149292,349.370605 269.763947,351.770447 265.582581,352.436188 
	C264.440186,352.618073 263.256805,352.542572 261.634033,352.585144 
z"/>
<path fill="#080808" opacity="1.000000" stroke="none" 
	d="
M131.000259,366.414612 
	C170.160355,366.414612 208.820419,366.407501 247.480484,366.433289 
	C249.634583,366.434723 251.861191,366.411560 253.926575,366.918884 
	C257.656281,367.834961 259.394409,370.565216 259.248779,374.339172 
	C259.111145,377.906647 257.215240,380.254822 253.716873,381.122192 
	C252.600922,381.398895 251.405823,381.446564 250.246918,381.446838 
	C184.258163,381.461578 118.269417,381.462372 52.280670,381.445190 
	C50.956924,381.444855 49.128792,381.720795 48.405384,380.997894 
	C46.348263,378.942078 43.379986,376.458252 43.340408,374.099762 
	C43.300728,371.734985 46.015137,368.906158 48.193832,367.083069 
	C49.444370,366.036682 52.028999,366.439728 54.013367,366.437134 
	C79.508957,366.403625 105.004608,366.414764 131.000259,366.414612 
z"/>
<path fill="#070707" opacity="1.000000" stroke="none" 
	d="
M108.000443,308.648865 
	C154.659332,308.648895 200.818192,308.648621 246.977066,308.649811 
	C248.476715,308.649841 249.980606,308.594421 251.475220,308.685150 
	C256.399536,308.984009 259.208099,311.637146 259.275269,315.977539 
	C259.341919,320.284943 256.516876,323.198456 251.752884,323.638611 
	C250.430389,323.760834 249.088486,323.680389 247.755493,323.680420 
	C183.266388,323.681610 118.777283,323.684174 54.288185,323.667755 
	C52.465290,323.667297 50.590881,323.696503 48.830078,323.306946 
	C44.888794,322.434998 42.808590,319.783386 43.005821,315.761993 
	C43.202518,311.751495 45.502148,309.269470 49.520901,308.824554 
	C52.157749,308.532562 54.844521,308.656464 57.508976,308.654663 
	C74.172783,308.643250 90.836617,308.648865 108.000443,308.648865 
z"/>
<path fill="#040404" opacity="1.000000" stroke="none" 
	d="
M195.697403,51.204746 
	C210.083496,60.964649 215.780289,75.961296 211.143311,91.213692 
	C206.719482,105.764893 193.495911,115.801506 178.486816,115.999748 
	C163.929596,116.192017 150.644562,107.332703 145.343506,93.897629 
	C140.171661,80.790077 143.582138,65.538643 153.854752,55.835835 
	C164.491379,45.789173 179.858093,43.452267 193.178009,49.862328 
	C193.924942,50.221779 194.646606,50.633717 195.697403,51.204746 
M186.151749,63.088467 
	C175.417130,59.183029 165.358505,62.518185 160.372116,71.636284 
	C155.639694,80.289940 158.044174,91.209312 165.969894,97.057365 
	C175.223419,103.885132 188.062164,101.614037 194.423294,92.024124 
	C200.921860,82.227028 197.728378,70.186073 186.151749,63.088467 
z"/>
<path fill="#040404" opacity="1.000000" stroke="none" 
	d="
M133.496552,54.574566 
	C142.465820,67.748268 138.933640,79.859024 123.560913,88.798477 
	C127.530815,93.337578 131.501511,97.786324 135.367706,102.324097 
	C139.135437,106.746300 139.191315,111.152435 135.660095,114.177727 
	C132.103180,117.225014 127.914001,116.504425 123.982208,112.080521 
	C119.230934,106.734566 114.531715,101.342339 108.826996,94.851746 
	C108.826996,99.518272 108.865875,103.024094 108.818398,106.528748 
	C108.735374,112.658386 105.820847,116.147942 100.990524,115.984375 
	C96.386383,115.828476 93.840324,112.529045 93.832428,106.507034 
	C93.810150,89.525604 93.807343,72.544052 93.851639,55.562691 
	C93.869278,48.799015 96.428162,46.278561 103.210556,46.188217 
	C107.039032,46.137218 110.868805,46.165592 114.697884,46.182766 
	C122.050194,46.215740 128.373428,48.617031 133.496552,54.574566 
M108.862572,68.477234 
	C108.862572,70.543198 108.862572,72.609161 108.862572,74.840111 
	C114.331169,74.686401 119.646210,76.022919 122.417686,70.765625 
	C123.273743,69.141762 122.935760,65.970345 121.847893,64.413521 
	C118.698341,59.906281 113.783821,61.207157 108.860283,61.369514 
	C108.860283,63.625927 108.860283,65.573921 108.862572,68.477234 
z"/>
<path fill="#030303" opacity="1.000000" stroke="none" 
	d="
M373.999481,208.924210 
	C334.197754,208.924194 294.895874,208.925842 255.593979,208.918289 
	C253.931137,208.917969 252.209167,209.093597 250.617249,208.733734 
	C246.757019,207.861145 244.408157,205.273880 244.508347,201.313843 
	C244.613129,197.173508 246.969009,194.521545 251.257431,194.004471 
	C252.572601,193.845871 253.918564,193.925018 255.250427,193.924927 
	C299.548309,193.921875 343.846222,193.922333 388.144104,193.923019 
	C389.143250,193.923035 390.144531,193.891144 391.141205,193.942978 
	C395.834106,194.187057 398.930237,197.062073 399.013184,201.222641 
	C399.100586,205.608841 395.945984,208.760040 390.985352,208.889740 
	C385.493439,209.033310 379.994965,208.923599 373.999481,208.924210 
z"/>
<path fill="#040404" opacity="1.000000" stroke="none" 
	d="
M357.557068,54.989082 
	C358.818573,58.783028 358.534760,61.927921 355.466553,64.320107 
	C351.967346,67.048386 348.721497,65.728470 345.293274,63.896538 
	C337.209198,59.576622 328.595215,60.663319 322.169769,66.555206 
	C316.206909,72.022926 314.159515,81.052795 317.182983,88.548965 
	C320.305908,96.291664 328.208008,101.742882 336.453369,100.787849 
	C339.989532,100.378265 343.685425,98.488647 346.611908,96.327774 
	C351.279266,92.881416 354.780945,92.239510 358.106232,95.510887 
	C361.383514,98.735031 360.958344,103.329559 357.008423,107.374290 
	C342.002716,122.740189 314.059082,116.827202 304.166229,96.192635 
	C297.661896,82.625862 300.722931,66.239258 311.708649,55.815399 
	C322.529663,45.547832 338.872864,43.265430 351.967133,50.354916 
	C353.950439,51.428719 355.551453,53.208588 357.557068,54.989082 
z"/>
<path fill="#060505" opacity="1.000000" stroke="none" 
	d="
M294.280823,102.542137 
	C297.502625,105.343231 298.443176,108.904808 296.333252,111.713264 
	C294.719238,113.861656 291.344574,115.584793 288.610352,115.817070 
	C281.831696,116.392906 274.970673,116.061974 268.143860,115.989189 
	C262.353149,115.927460 259.549316,113.292107 259.511810,107.421410 
	C259.401215,90.103363 259.402954,72.783768 259.506531,55.465645 
	C259.542206,49.499279 262.197876,46.922047 268.045319,46.835911 
	C275.037903,46.732906 282.034454,46.731903 289.026855,46.840973 
	C294.232056,46.922169 297.194244,49.704826 297.221710,54.205486 
	C297.248932,58.656925 294.206970,61.631119 289.135559,61.791073 
	C284.497101,61.937370 279.850372,61.822109 274.853790,61.822109 
	C274.853790,65.798721 274.853790,69.527390 274.853790,73.916977 
	C278.844421,73.916977 282.939484,73.858124 287.032166,73.931580 
	C292.383392,74.027634 295.776703,77.039360 295.703979,81.496582 
	C295.632019,85.904388 292.179413,88.830376 286.814789,88.917358 
	C282.848724,88.981674 278.880798,88.930008 274.710632,88.930008 
	C274.710632,93.080284 274.710632,96.824577 274.710632,100.337440 
	C281.221527,100.993019 287.593628,101.634621 294.280823,102.542137 
z"/>
<path fill="#030303" opacity="1.000000" stroke="none" 
	d="
M68.090416,91.550934 
	C63.719471,91.910385 59.747948,92.122803 55.038502,92.374687 
	C55.038502,97.189621 55.077599,102.102211 55.028236,107.013901 
	C54.971283,112.681099 51.972309,116.135376 47.336910,115.987099 
	C42.880398,115.844536 40.068363,112.520432 40.053848,107.066788 
	C40.007801,89.769920 39.999844,72.472725 40.055962,55.175922 
	C40.075603,49.121407 42.855511,46.337410 48.874943,46.202553 
	C53.363232,46.101994 57.857552,46.098667 62.345791,46.200893 
	C74.726677,46.482895 84.536209,54.905338 85.916405,66.346230 
	C87.307869,77.880554 80.406075,87.804649 68.090416,91.550934 
M66.297302,76.295372 
	C70.385559,74.131920 72.090477,70.845909 70.425095,66.411095 
	C68.626114,61.620502 63.525101,60.156368 55.363575,61.787014 
	C55.363575,66.843773 55.363575,71.900536 55.363575,77.292419 
	C58.989807,77.087105 62.282864,76.900650 66.297302,76.295372 
z"/>
<path fill="#050505" opacity="1.000000" stroke="none" 
	d="
M154.190918,401.017578 
	C154.915146,408.269440 152.389999,411.161499 145.406555,411.170898 
	C114.347343,411.212677 83.288017,411.209656 52.228786,411.172058 
	C45.349644,411.163727 43.015957,408.688202 43.086613,401.446228 
	C45.254906,397.409424 48.421249,396.105804 52.642467,396.120026 
	C83.379494,396.223511 114.117073,396.201782 144.854340,396.144409 
	C148.783981,396.137085 152.094818,396.935822 154.190918,401.017578 
z"/>
<path fill="#040404" opacity="1.000000" stroke="none" 
	d="
M295.000061,222.871826 
	C308.999512,222.872452 322.499023,222.844574 335.998352,222.886856 
	C341.913788,222.905380 345.143219,225.642456 345.097168,230.401413 
	C345.051514,235.118759 341.762665,237.859085 335.847382,237.865891 
	C308.515228,237.897324 281.182983,237.894516 253.850800,237.867844 
	C248.035065,237.862167 244.537918,235.052307 244.420471,230.490311 
	C244.297531,225.715363 247.790741,222.894241 254.001724,222.880905 
	C267.501129,222.851929 281.000580,222.871887 295.000061,222.871826 
z"/>
<path fill="#050505" opacity="1.000000" stroke="none" 
	d="
M390.092896,115.386398 
	C383.065826,116.408714 379.888824,113.853203 379.857513,107.301476 
	C379.785217,92.163940 379.834564,77.025826 379.834564,61.162243 
	C377.122009,61.162243 374.691772,61.269985 372.274475,61.139046 
	C367.719635,60.892323 364.944214,58.213619 364.840942,54.057472 
	C364.732513,49.692211 367.111328,46.609745 371.175018,46.458797 
	C381.981415,46.057400 392.824860,46.045654 403.628418,46.490284 
	C407.686584,46.657299 410.157623,49.965389 409.848145,54.203003 
	C409.545502,58.347069 407.038727,60.882275 402.719696,61.120522 
	C400.270355,61.255630 397.807495,61.144920 394.846954,61.144920 
	C394.846954,72.725822 394.847321,83.837624 394.846771,94.949417 
	C394.846588,99.113953 395.381775,103.375023 394.657074,107.409622 
	C394.161194,110.170235 391.908447,112.615280 390.092896,115.386398 
z"/>
<path fill="#050505" opacity="1.000000" stroke="none" 
	d="
M225.154037,115.141693 
	C222.055008,113.469666 219.057968,112.231491 216.715378,110.228058 
	C213.523865,107.498611 213.130386,103.855370 215.742020,100.414284 
	C218.311234,97.029053 221.713135,96.469765 225.492966,98.418938 
	C225.932602,98.645653 226.275253,99.121307 226.728561,99.249817 
	C228.360153,99.712372 230.568298,100.898933 231.525711,100.261223 
	C232.641159,99.518280 233.090912,97.150772 233.106750,95.481369 
	C233.228409,82.653641 233.154449,69.824173 233.197754,56.995434 
	C233.203888,55.184666 233.251297,53.299343 233.741608,51.580307 
	C234.790512,47.902805 237.600311,46.024582 241.262329,46.333248 
	C245.103622,46.657021 248.022659,48.920967 248.052811,53.032551 
	C248.168854,68.856636 248.563965,84.707802 247.810272,100.499008 
	C247.299927,111.191933 236.482010,117.739571 225.154037,115.141693 
z"/>
<path fill="#030303" opacity="1.000000" stroke="none" 
	d="
M383.957581,380.098450 
	C361.798737,387.197388 339.285156,375.515900 333.283386,354.115448 
	C327.291656,332.750763 340.095612,311.094666 361.944946,305.638550 
	C380.364319,301.038940 399.763611,311.204193 407.000580,329.247742 
	C414.179779,347.147400 406.705536,368.098358 389.761200,377.462097 
	C388.020538,378.423981 386.149963,379.150818 383.957581,380.098450 
M392.057831,354.320099 
	C392.442932,353.405426 392.885651,352.510376 393.204285,351.573120 
	C396.537415,341.768982 394.340912,333.198334 387.024689,326.065216 
	C380.233276,319.443787 369.698517,317.713684 361.114166,321.729980 
	C351.816467,326.080017 346.983856,333.527161 346.963287,343.839081 
	C346.942383,354.328217 353.864258,363.351410 364.038483,366.423859 
	C374.662872,369.632202 384.973114,365.388580 392.057831,354.320099 
z"/>
<path fill="#FCCE5A" opacity="1.000000" stroke="none" 
	d="
M145.000000,179.966507 
	C161.984344,179.966751 178.468781,179.934845 194.953003,179.979111 
	C205.087158,180.006317 210.377151,185.153214 210.423950,195.308029 
	C210.522186,216.620682 210.524704,237.934387 210.427475,259.247040 
	C210.380173,269.615692 205.059708,274.728973 194.540909,274.736969 
	C154.245865,274.767578 113.950768,274.772278 73.655739,274.733917 
	C63.215015,274.723969 57.964439,269.451233 57.948383,259.088745 
	C57.915627,237.942215 57.917381,216.795578 57.948723,195.649033 
	C57.964188,185.212540 63.149540,179.995483 73.567337,179.978958 
	C97.211510,179.941422 120.855774,179.966736 145.000000,179.966507 
M138.015060,232.500000 
	C138.015274,240.485733 137.977249,248.471725 138.027512,256.457153 
	C138.069427,263.115417 140.724289,265.777710 147.471695,265.802887 
	C161.779236,265.856323 176.087234,265.855133 190.394775,265.802399 
	C197.070953,265.777771 199.842529,263.049774 199.862625,256.419128 
	C199.917068,238.451431 199.918564,220.483353 199.861679,202.515671 
	C199.840759,195.910828 197.059555,193.174454 190.356216,193.144653 
	C176.048767,193.081055 161.740616,193.079422 147.433182,193.145844 
	C140.722870,193.177002 138.060425,195.889404 138.027740,202.551849 
	C137.980408,212.201019 138.015259,221.850601 138.015060,232.500000 
M84.552795,265.820343 
	C96.868523,265.819885 109.184731,265.883392 121.499771,265.791290 
	C127.439148,265.746887 130.153946,263.105164 130.223541,257.314423 
	C130.335541,247.995773 130.329758,238.673965 130.226822,229.355118 
	C130.162155,223.502975 127.525772,220.929550 121.582573,220.901047 
	C106.937172,220.830795 92.291069,220.836273 77.645576,220.894135 
	C71.166061,220.919739 68.718163,223.430954 68.643311,230.034744 
	C68.564095,237.023865 68.622826,244.014557 68.622635,251.004562 
	C68.622253,265.218140 69.230392,265.820343 84.552795,265.820343 
z"/>
<path fill="#F6F3F3" opacity="1.000000" stroke="none" 
	d="
M186.494781,63.255730 
	C197.728378,70.186073 200.921860,82.227028 194.423294,92.024124 
	C188.062164,101.614037 175.223419,103.885132 165.969894,97.057365 
	C158.044174,91.209312 155.639694,80.289940 160.372116,71.636284 
	C165.358505,62.518185 175.417130,59.183029 186.494781,63.255730 
z"/>
<path fill="#F1EEEE" opacity="1.000000" stroke="none" 
	d="
M108.861427,67.999573 
	C108.860283,65.573921 108.860283,63.625927 108.860283,61.369514 
	C113.783821,61.207157 118.698341,59.906281 121.847893,64.413521 
	C122.935760,65.970345 123.273743,69.141762 122.417686,70.765625 
	C119.646210,76.022919 114.331169,74.686401 108.862572,74.840111 
	C108.862572,72.609161 108.862572,70.543198 108.861427,67.999573 
z"/>
<path fill="#F2EFEF" opacity="1.000000" stroke="none" 
	d="
M65.936615,76.504791 
	C62.282864,76.900650 58.989807,77.087105 55.363575,77.292419 
	C55.363575,71.900536 55.363575,66.843773 55.364899,61.785065 
	C63.525101,60.156368 68.626114,61.620502 70.425095,66.411095 
	C72.090477,70.845909 70.385559,74.131920 65.936615,76.504791 
z"/>
<path fill="#F8F5F5" opacity="1.000000" stroke="none" 
	d="
M391.908569,354.667114 
	C384.973114,365.388580 374.662872,369.632202 364.038483,366.423859 
	C353.864258,363.351410 346.942383,354.328217 346.963287,343.839081 
	C346.983856,333.527161 351.816467,326.080017 361.114166,321.729980 
	C369.698517,317.713684 380.233276,319.443787 387.024689,326.065216 
	C394.340912,333.198334 396.537415,341.768982 393.204285,351.573120 
	C392.885651,352.510376 392.442932,353.405426 391.908569,354.667114 
z"/>
<path fill="#030301" opacity="1.000000" stroke="none" 
	d="
M138.015060,232.000000 
	C138.015259,221.850601 137.980408,212.201019 138.027740,202.551849 
	C138.060425,195.889404 140.722870,193.177002 147.433182,193.145844 
	C161.740616,193.079422 176.048767,193.081055 190.356216,193.144653 
	C197.059555,193.174454 199.840759,195.910828 199.861679,202.515671 
	C199.918564,220.483353 199.917068,238.451431 199.862625,256.419128 
	C199.842529,263.049774 197.070953,265.777771 190.394775,265.802399 
	C176.087234,265.855133 161.779236,265.856323 147.471695,265.802887 
	C140.724289,265.777710 138.069427,263.115417 138.027512,256.457153 
	C137.977249,248.471725 138.015274,240.485733 138.015060,232.000000 
M160.592316,250.822708 
	C168.532471,250.822708 176.472626,250.822708 184.610229,250.822708 
	C184.610229,236.372375 184.610229,222.487106 184.610229,208.477112 
	C173.967773,208.477112 163.602844,208.477112 153.356842,208.477112 
	C153.356842,222.730453 153.356842,236.625412 153.356842,250.822662 
	C155.673248,250.822662 157.646820,250.822662 160.592316,250.822708 
z"/>
<path fill="#040302" opacity="1.000000" stroke="none" 
	d="
M84.064148,265.820343 
	C69.230392,265.820343 68.622253,265.218140 68.622635,251.004562 
	C68.622826,244.014557 68.564095,237.023865 68.643311,230.034744 
	C68.718163,223.430954 71.166061,220.919739 77.645576,220.894135 
	C92.291069,220.836273 106.937172,220.830795 121.582573,220.901047 
	C127.525772,220.929550 130.162155,223.502975 130.226822,229.355118 
	C130.329758,238.673965 130.335541,247.995773 130.223541,257.314423 
	C130.153946,263.105164 127.439148,265.746887 121.499771,265.791290 
	C109.184731,265.883392 96.868523,265.819885 84.064148,265.820343 
M92.553635,250.822662 
	C99.970688,250.822662 107.387733,250.822662 114.880775,250.822662 
	C114.880775,245.535843 114.880775,240.847855 114.880775,236.225983 
	C104.305321,236.225983 94.105988,236.225983 83.938042,236.225983 
	C83.938042,241.157471 83.938042,245.733749 83.938042,250.822601 
	C86.678429,250.822601 89.126122,250.822601 92.553635,250.822662 
z"/>
<path fill="#B8E86A" opacity="1.000000" stroke="none" 
	d="
M160.106354,250.822693 
	C157.646820,250.822662 155.673248,250.822662 153.356842,250.822662 
	C153.356842,236.625412 153.356842,222.730453 153.356842,208.477112 
	C163.602844,208.477112 173.967773,208.477112 184.610229,208.477112 
	C184.610229,222.487106 184.610229,236.372375 184.610229,250.822708 
	C176.472626,250.822708 168.532471,250.822708 160.106354,250.822693 
z"/>
<path fill="#F9626D" opacity="1.000000" stroke="none" 
	d="
M92.063728,250.822632 
	C89.126122,250.822601 86.678429,250.822601 83.938042,250.822601 
	C83.938042,245.733749 83.938042,241.157471 83.938042,236.225983 
	C94.105988,236.225983 104.305321,236.225983 114.880775,236.225983 
	C114.880775,240.847855 114.880775,245.535843 114.880775,250.822662 
	C107.387733,250.822662 99.970688,250.822662 92.063728,250.822632 
z"/>
</svg>